**ABCDEFGHIJKLMNOPQRSTUVWXYZabcdefghijklmnopqrstuvwxyz**************************
**PARASOLID !"#$%&'()*+,-./:;<=>?@[\]^_`{|}~0123456789**************************
**PART1;
MC=AMD64;
MC_MODEL=Intel64 Family 6 Model 85 Stepping 0, GenuineIntel;
MC_ID=unknown;
OS=Windows_NT;
OS_RELEASE=unknown;
FRU=Parasolid Version 31.1, build 290,  3- 9-2020;
APPL=SOLIDWORKS 2020-2020196;
SITE=;
USER=unknown;
FORMAT=text;
GUISE=transmit;
KEY=2D-Cylinder-Fluid-Volume;
FILE=2D-Cylinder-Fluid-Volume.x_t;
DATE=Mon May 17 18:45:35 2021;
**PART2;
SCH=SCH_3101290_31100;
USFLD_SIZE=0;
**PART3;
**END_OF_HEADER*****************************************************************
T51 : TRANSMIT FILE created by modeller version 310129023 SCH_3101290_31100_1300
6222 0 12 34 CCCCCCI4 mesh1006 0 I8 polyline1008 0 CCCCCCCDI5 owner1040 0 CCCCCC
I13 boundary_mesh1006 0 I17 boundary_polyline1008 0 CCCA16 index_map_offset0 0 1
 dA9 index_map82 0 A17 node_id_index_map82 0 A20 schema_embedding_map82 0 A5 chi
ld12 0 A14 lowest_node_id0 0 1 dA16 mesh_offset_data206 0 Z1 250 2 3 0 0 0 0 0 0
 1e3 1e-8 0 4 0 1 0 1 1 5 6 7 8 0 0 9 10 11 0 0 0 0 0 0 0 81 255 2 2 241 12 1 13
 0 0 0 0 14 70 11 CI9 list_type0 0 1 uI10 notransmit0 0 1 lCCCDCCDI12 finger_ind
ex0 0 1 dI12 finger_block1012 0 CZ3 0 4 T1 0 0 7 20 1 15 15 13 255 5 62 0 1 0 16
 0 0 17 0 50 255 6 143 0 16 18 0 0 +140805507601539e-34 1586095226919115e-52 0 -
1 -1126444024766102e-32 0 1126444024766102e-32 -1 0 31 255 7 149 0 10 19 0 0 +0
 0 0 1 1126444024766102e-32 0 -1126444024766102e-32 1 0 .00250000008 29 255 8 60
 0 11 20 0 0 0 0 19 8 CCCCCCCA5 owner12 0 Z9 66 0 1 17 0 21 V0 16 255 10 131 0 ?
22 0 23 7 0 0 1 18 255 11 58 0 24 0 25 8 ?1 17 255 24 0 26 27 28 11 29 30 0 31 +
18 25 55 0 32 11 33 20 ?1 17 32 0 34 31 29 25 22 10 0 35 -18 33 52 0 36 25 37 38
 ?1 29 20 57 0 25 38 8 281611015203079e-34 -872870362642634e-32 -.00250000008 29
 38 54 0 33 39 20 .0139999974 -857100149224663e-32 -.00250000008 29 39 51 0 37 4
0 38 .0139999974 -901441962227971e-32 -.00262700008 18 37 49 0 41 33 42 39 ?1 29
 40 48 0 42 43 39 .0069999987 -909327068936956e-32 -.00262700008 18 42 46 0 44 3
7 45 40 ?1 29 43 45 0 45 46 40 .0069999987 -4356466706504185e-32 -.0125000004 18
 45 43 0 47 42 48 43 ?1 29 46 42 0 48 49 43 .0769999857 -427761563941433e-31 -.0
125000004 18 48 40 0 50 45 51 46 ?1 29 49 39 0 51 52 46 .0769999857 867361737988
404e-33 0 18 51 37 0 27 48 53 49 ?1 29 52 108 0 53 54 49 0 .00250000008 0 18 53
 90 0 22 51 55 52 ?1 29 54 109 0 55 56 52 .0139999974 .00250000008 0 18 55 89 0
 57 53 58 54 ?1 29 56 110 0 58 59 54 .0139999974 .00262700008 0 18 58 88 0 60 55
 61 56 ?1 29 59 111 0 61 62 56 .0069999987 .00262700008 0 18 61 87 0 63 58 64 59
 ?1 29 62 112 0 64 65 59 .0069999987 .0125000004 0 18 64 86 0 66 61 67 62 ?1 29
 65 113 0 67 0 62 .0769999857 .0125000004 0 18 67 85 0 68 64 0 65 ?1 17 68 0 69
 70 71 67 50 72 0 73 +15 255 69 63 0 71 74 0 17 70 0 69 71 68 51 73 75 0 76 -17
 71 0 69 68 70 48 76 77 0 78 +17 50 0 79 80 81 48 68 72 0 71 -16 72 116 0 ?68 82
 83 84 0 0 1 17 73 0 26 85 27 67 70 75 0 81 +15 26 95 0 27 86 0 17 85 0 26 87 73
 64 81 88 0 89 +17 27 0 26 73 24 51 90 91 0 70 +16 75 70 0 ?73 88 0 92 0 0 1 17
 81 0 79 50 66 67 85 88 0 0 -15 79 117 0 50 93 0 17 66 0 79 81 80 64 47 82 0 85
 +16 88 72 0 ?85 94 75 95 0 0 1 16 94 74 0 ?87 96 88 97 0 0 1 30 255 95 104 0 88
 92 97 0 +.0069999987 .0125000004 0 -1 0 0 30 92 105 0 75 0 95 0 +.0769999857 .0
125000004 0 111022298909802e-29 1 0 30 97 103 0 94 95 98 0 +.0069999987 .0026270
0008 0 0 -1 0 30 98 102 0 96 97 99 0 +.0139999974 .00262700008 0 1 1239088427242
712e-31 0 16 96 76 0 ?100 101 94 98 0 0 1 30 99 101 0 101 98 102 0 +.0139999974
 .00250000008 0 0 -1 0 16 101 78 0 ?103 104 96 99 0 0 1 30 102 100 0 104 99 105
 0 +0 .00250000008 0 -1 0 0 16 104 80 0 ?28 30 101 102 0 0 1 30 105 99 0 30 102
 106 0 +0 0 0 0 -1 0 16 30 82 0 ?24 91 104 105 0 0 1 30 106 7 0 91 105 107 0 +.0
769999857 867361737988404e-33 0 1 1126444024766102e-32 0 16 91 5 0 ?27 77 30 106
 0 0 1 30 107 11 0 77 106 108 0 +.0769999857 -427761563941433e-31 -.0125000004 1
121487429345682e-30 -3491481338843135e-30 -1 16 77 9 0 ?71 109 91 107 0 0 1 30 1
08 15 0 109 107 110 0 +.0069999987 -4356466706504185e-32 -.0125000004 -1 -112644
4024766106e-32 -1126444024766102e-32 16 109 13 0 ?80 111 77 108 0 0 1 30 110 19
 0 111 108 112 0 +.0069999987 -909327068936956e-32 -.00262700008 -11264440247661
06e-32 3491481338843135e-30 1 16 111 17 0 ?113 114 109 110 0 0 1 30 112 23 0 114
 110 115 0 +.0139999974 -901441962227971e-32 -.00262700008 1 1126444024766064e-3
2 -1126444024766102e-31 16 114 21 0 ?116 117 111 112 0 0 1 30 115 27 0 117 112 1
18 0 +.0139999974 -857100149224663e-32 -.00250000008 -1126444024766106e-32 34914
81338843135e-30 1 16 117 25 0 ?119 120 114 115 0 0 1 30 118 31 0 120 115 121 0 +
281611015203079e-34 -872870362642634e-32 -.00250000008 -1 -1126444024766106e-32
 -1126444024766102e-32 16 120 29 0 ?35 83 117 118 0 0 1 30 121 35 0 83 118 84 0
 +0 0 0 -1126444024766106e-32 3491481338843135e-30 1 16 83 33 0 ?31 72 120 121 0
 0 1 31 84 144 0 72 121 122 0 +.0769999857 867361737988404e-33 0 1 1126444024766
102e-32 0 -1126444024766102e-32 1 0 .0125000004 31 122 145 0 82 84 123 0 +.00699
99987 788510670898549e-34 0 1 1126444024766102e-32 0 -1126444024766102e-32 1 0 .
0125000004 16 82 119 0 ?66 124 72 122 0 0 1 31 123 146 0 124 122 125 0 +.0069999
987 788510670898549e-34 0 1 1126444024766102e-32 0 -1126444024766102e-32 1 0 .00
262700008 16 124 122 0 ?63 126 82 123 0 0 1 31 125 147 0 126 123 19 0 +.01399999
74 15770213417971e-32 0 1 1126444024766102e-32 0 -1126444024766102e-32 1 0 .0026
2700008 16 126 125 0 ?60 23 124 125 0 0 1 31 19 148 0 23 125 7 0 +.0139999974 15
770213417971e-32 0 1 1126444024766102e-32 0 -1126444024766102e-32 1 0 .002500000
08 16 23 128 0 ?57 10 126 19 0 0 1 17 57 0 127 128 119 55 36 23 0 103 +15 127 12
6 0 41 129 0 17 128 0 127 41 57 58 103 101 0 0 -17 119 0 127 57 41 33 130 117 0
 131 +17 36 0 132 35 133 33 57 23 0 119 -17 103 0 26 28 100 55 128 101 0 133 +17
 28 0 26 24 103 53 133 104 0 29 +17 100 0 26 103 87 58 134 96 0 128 +17 133 0 13
2 36 22 55 28 104 0 0 -15 132 129 0 36 135 0 17 22 0 132 133 35 53 32 10 0 28 +1
7 35 0 132 22 36 25 131 120 0 136 +17 131 0 137 130 136 33 35 120 0 0 -17 136 0
 137 131 90 25 31 83 0 0 -15 137 4 0 90 138 0 17 90 0 137 136 76 11 27 91 0 0 -1
7 31 0 34 29 32 11 136 83 0 90 +15 34 132 0 32 16 0 17 29 0 34 32 31 53 24 30 0
 0 -14 255 16 133 139 ?135 0 34 5 6 +0 0 135 0 21 81 1 139 242 140 16 141 0 0 14
2 143 14 135 130 142 ?129 16 132 5 18 +0 0 129 16 21 13 21 65 0 0 0 0 0 0 9 16 8
1 1 142 243 140 135 144 0 139 145 146 14 129 127 145 ?147 135 127 5 148 +0 0 147
 135 21 51 255 18 142 0 135 148 6 0 +.0769999857 867361737988404e-33 0 1 1126444
024766102e-32 0 .00250000008 -1126444024766102e-32 1 0 50 148 141 0 129 149 18 0
 +.0139999974 -857100149224663e-32 -.00250000008 -1 -1126444024766102e-32 0 1126
444024766102e-32 -1 0 51 149 140 0 147 150 148 0 -.0769999857 867361737988404e-3
3 0 1 1126444024766102e-32 0 .00262700008 -1126444024766102e-32 1 0 14 147 124 1
51 ?152 129 153 5 149 +0 0 152 129 21 50 150 139 0 152 154 149 0 +.0069999987 -9
09327068936956e-32 -.00262700008 -1 -1126444024766102e-32 0 1126444024766102e-32
 -1 0 14 152 121 155 ?93 147 156 5 150 +0 0 93 147 21 51 154 138 0 93 157 150 0
 +.0769999857 867361737988404e-33 0 1 1126444024766102e-32 0 .0125000004 -112644
4024766102e-32 1 0 14 93 118 158 ?74 152 79 5 154 +0 0 74 152 21 50 157 137 0 74
 159 154 0 +.0769999857 -427761563941433e-31 -.0125000004 1 1126444024766102e-32
 0 -1126444024766102e-32 1 0 14 74 64 160 ?138 93 69 5 157 +0 0 138 93 21 50 159
 3 0 138 161 157 0 +0 0 0 1126444024766102e-32 -1 3491481338843135e-30 -1 -11264
44024766106e-32 -1126444024766102e-32 14 138 1 162 ?86 74 137 5 159 +0 0 86 74 2
1 50 161 98 0 86 0 159 0 +0 0 0 0 0 -1 -1 0 0 14 86 94 163 ?0 138 26 5 161 -0 0
 0 138 21 81 1 163 250 140 86 164 0 162 0 165 80 255 1 140 166 167 9000 1 1 1 1
 1 1 1 1 0 FFFFTFTFFFFFFF1 81 1 164 221 168 86 0 163 169 0 170 81 1 162 249 140
 138 169 0 160 163 171 82 255 1 165 -50986895 81 1 169 220 168 138 0 162 172 164
 173 81 1 160 248 140 74 172 0 158 162 174 82 1 171 -59441039 81 1 172 219 168 7
4 0 160 175 169 176 81 1 158 247 140 93 175 0 155 160 177 82 1 174 -55377807 81
 1 175 218 168 93 0 158 178 172 179 81 1 155 246 140 152 178 0 151 158 180 82 1
 177 -50331535 81 1 178 217 168 152 0 155 181 175 182 81 1 151 245 140 147 181 0
 145 155 183 82 1 180 -50003855 81 1 181 216 168 147 0 151 184 178 185 81 1 145
 244 140 129 184 0 142 151 186 82 1 183 -49676175 81 1 184 215 168 129 0 145 144
 181 187 82 1 186 -49348495 80 1 168 0 188 8001 0 0 0 0 3 5 0 0 0 FFFFTFTFFFFFFF
2 81 1 144 214 168 135 0 142 141 184 189 83 255 3 187 .792156862745098 .81960784
3137255 .933333333333333 81 1 141 213 168 16 0 139 0 144 190 83 3 189 .792156862
745098 .819607843137255 .933333333333333 83 3 190 .792156862745098 .819607843137
255 .933333333333333 79 255 15 188 SDL/TYSA_COLOUR83 3 185 .792156862745098 .819
607843137255 .933333333333333 83 3 182 .792156862745098 .819607843137255 .933333
333333333 83 3 179 .792156862745098 .819607843137255 .933333333333333 83 3 176 .
792156862745098 .819607843137255 .933333333333333 83 3 173 .792156862745098 .819
607843137255 .933333333333333 83 3 170 .792156862745098 .819607843137255 .933333
333333333 79 14 167 SWEntUnchanged15 156 120 0 47 152 0 17 47 0 156 113 89 45 66
 82 0 80 -17 113 0 156 63 47 42 191 111 0 192 +17 89 0 156 47 63 64 87 94 0 0 -1
7 80 0 79 66 50 45 78 109 0 191 +17 78 0 137 76 191 48 80 109 0 0 -17 191 0 137
 78 192 45 113 111 0 0 -17 192 0 137 191 130 42 116 114 0 0 -17 130 0 137 192 13
1 37 119 117 0 0 -17 116 0 153 60 44 37 192 114 0 130 +15 153 123 0 44 147 0 17
 60 0 153 134 116 58 41 126 0 100 +17 44 0 153 116 134 42 63 124 0 113 -17 134 0
 153 44 60 61 100 96 0 0 -17 63 0 156 89 113 61 44 124 0 87 +17 87 0 26 100 85 6
1 89 94 0 134 +17 41 0 127 119 128 37 60 126 0 116 -17 76 0 137 90 78 51 71 77 0
 0 -82 1 146 -49020815 82 1 143 -48693135 19 17 61 0 1 0 9 5 S0 74 4 CI16 index_
map_offset0 0 1 dCCZ20 15 7 0 0 193 194 163 195 13 164 2 0 0 0 0 0 0 0 0 0 0 0 0
 0 81 2 193 196 196 1 0 194 0 0 0 197 81 2 194 200 198 1 193 195 0 0 0 199 81 1
 195 210 200 1 194 13 0 0 201 81 2 13 211 202 1 195 2 0 0 0 0 80 2 202 203 204 9
000 0 0 0 0 3 5 0 0 0 FFTFFFFFFFFFFF9 1 79 16 204 BODY_RECIPE_200180 1 200 205 2
06 9000 1 1 1 1 1 1 1 1 0 FFTFFFFFFFFFFF1 82 1 201 195699 79 10 206 BODY_MATCH80
 2 198 207 208 9000 0 0 0 0 3 5 0 0 0 FFTFFFFFFFFFFF9 1 82 1 199 51 79 30 208 LA
ST_BODY_MODIFYING_FEATURE_ID80 2 196 209 210 9000 0 0 0 0 3 5 0 0 0 FFTFFFFFFFFF
FF9 1 82 1 197 103 79 19 210 ENT_TIME_STAMP_200180 2 12 211 212 9000 0 0 0 0 3 5
 0 0 0 FFTFFFFFFFFFFF9 1 82 1 14 101 79 12 212 ATOM_ID_20011 0 
